<svg width="110" height="98" viewBox="0 0 110 98" fill="none" xmlns="http://www.w3.org/2000/svg">
<mask id="path-1-inside-1_64_27" fill="white">
<path d="M2.09916e-05 2.07128C2.09416e-05 0.927348 0.927885 -0.00203427 2.07162 0.0194806C28.3398 0.513849 53.5909 10.3974 73.2296 27.9182C92.8684 45.4389 105.557 69.4035 109.033 95.4454C109.184 96.5792 108.366 97.6067 107.23 97.7367C106.093 97.8667 105.069 97.05 104.916 95.9162C101.557 70.885 89.3515 47.853 70.4718 31.0093C51.5921 14.1657 27.3224 4.65664 2.07154 4.16282C0.927816 4.14045 2.10416e-05 3.21522 2.09916e-05 2.07128Z"/>
</mask>
<path d="M2.09916e-05 2.07128C2.09416e-05 0.927348 0.927885 -0.00203427 2.07162 0.0194806C28.3398 0.513849 53.5909 10.3974 73.2296 27.9182C92.8684 45.4389 105.557 69.4035 109.033 95.4454C109.184 96.5792 108.366 97.6067 107.23 97.7367C106.093 97.8667 105.069 97.05 104.916 95.9162C101.557 70.885 89.3515 47.853 70.4718 31.0093C51.5921 14.1657 27.3224 4.65664 2.07154 4.16282C0.927816 4.14045 2.10416e-05 3.21522 2.09916e-05 2.07128Z" stroke="#5956E9" stroke-width="8" mask="url(#path-1-inside-1_64_27)"/>
</svg>
