<svg width="98" height="110" viewBox="0 0 98 110" fill="none" xmlns="http://www.w3.org/2000/svg">
<mask id="path-1-inside-1_64_23" fill="white">
<path d="M2.07129 110C0.927359 110 -0.00202386 109.072 0.0194909 107.928C0.513858 81.6603 10.3974 56.4092 27.9182 36.7704C45.4389 17.1317 69.4035 4.44301 95.4454 0.967143C96.5792 0.815807 97.6067 1.63374 97.7367 2.77027C97.8667 3.90679 97.05 4.93147 95.9162 5.08364C70.885 8.44337 47.853 20.6485 31.0094 39.5282C14.1657 58.408 4.65665 82.6776 4.16283 107.929C4.14046 109.072 3.21523 110 2.07129 110Z"/>
</mask>
<path d="M2.07129 110C0.927359 110 -0.00202386 109.072 0.0194909 107.928C0.513858 81.6603 10.3974 56.4092 27.9182 36.7704C45.4389 17.1317 69.4035 4.44301 95.4454 0.967143C96.5792 0.815807 97.6067 1.63374 97.7367 2.77027C97.8667 3.90679 97.05 4.93147 95.9162 5.08364C70.885 8.44337 47.853 20.6485 31.0094 39.5282C14.1657 58.408 4.65665 82.6776 4.16283 107.929C4.14046 109.072 3.21523 110 2.07129 110Z" stroke="#5956E9" stroke-width="8" mask="url(#path-1-inside-1_64_23)"/>
</svg>
