<svg width="590" height="196" viewBox="0 0 590 196" fill="none" xmlns="http://www.w3.org/2000/svg">
<g filter="url(#filter0_d_135_701)">
<rect x="10" y="9" width="170" height="176" rx="10" fill="#5851EA"/>
</g>
<g clip-path="url(#clip0_135_701)">
<path d="M82.8334 66.7083H106.167V56.5H109.083V68.1667C109.083 68.5534 108.93 68.9244 108.656 69.1979C108.383 69.4714 108.012 69.625 107.625 69.625H81.375C80.9882 69.625 80.6173 69.4714 80.3438 69.1979C80.0703 68.9244 79.9167 68.5534 79.9167 68.1667V56.5H82.8334V66.7083ZM97.4167 52.125H104.708L94.5 62.3333L84.2917 52.125H91.5834V43.375H97.4167V52.125Z" fill="white"/>
</g>
<path d="M67.1 111.2C66.1667 111.2 65.2667 111.033 64.4 110.7C63.55 110.35 62.875 109.925 62.375 109.425L63.9 107.125C64.2167 107.508 64.65 107.817 65.2 108.05C65.7667 108.283 66.3167 108.4 66.85 108.4C67.6333 108.4 68.2917 108.15 68.825 107.65C69.3583 107.15 69.625 106.475 69.625 105.625C69.625 104.708 69.3667 103.958 68.85 103.375C68.3333 102.792 67.6 102.5 66.65 102.5C66.1 102.5 65.575 102.575 65.075 102.725C64.5917 102.875 64.0667 103.117 63.5 103.45H63.475V94.5H71.5V97.3H65.975V100.2C66.425 100.1 66.8833 100.05 67.35 100.05C68.4833 100.05 69.4417 100.308 70.225 100.825C71.0083 101.325 71.6 101.992 72 102.825C72.4167 103.642 72.625 104.542 72.625 105.525C72.625 106.592 72.3833 107.558 71.9 108.425C71.4167 109.275 70.7583 109.95 69.925 110.45C69.0917 110.95 68.15 111.2 67.1 111.2ZM79.8121 105.7C78.9954 105.7 78.2038 105.475 77.4371 105.025C76.6871 104.575 76.0704 103.95 75.5871 103.15C75.1204 102.35 74.8871 101.442 74.8871 100.425C74.8871 99.175 75.1704 98.1083 75.7371 97.225C76.3038 96.3417 77.0371 95.6667 77.9371 95.2C78.8371 94.7167 79.7954 94.475 80.8121 94.475C81.9454 94.475 82.9704 94.7333 83.8871 95.25C84.8204 95.75 85.5538 96.45 86.0871 97.35C86.6371 98.25 86.9121 99.275 86.9121 100.425C86.9121 101.758 86.6704 102.967 86.1871 104.05C85.7038 105.117 85.0621 106.083 84.2621 106.95C83.4621 107.817 82.5788 108.617 81.6121 109.35C80.6454 110.067 79.6788 110.742 78.7121 111.375L76.7621 109.25C78.1121 108.617 79.2871 107.925 80.2871 107.175C81.3038 106.425 82.0954 105.675 82.6621 104.925C82.2954 105.175 81.8788 105.367 81.4121 105.5C80.9454 105.633 80.4121 105.7 79.8121 105.7ZM80.9121 103.25C81.7788 103.25 82.4954 102.992 83.0621 102.475C83.6288 101.942 83.9121 101.292 83.9121 100.525V100.025C83.9121 99.4917 83.7704 99.0083 83.4871 98.575C83.2204 98.125 82.8621 97.7667 82.4121 97.5C81.9788 97.2167 81.4788 97.075 80.9121 97.075C80.0788 97.075 79.3704 97.3583 78.7871 97.925C78.2038 98.475 77.9121 99.2333 77.9121 100.2C77.9121 101.15 78.2038 101.9 78.7871 102.45C79.3704 102.983 80.0788 103.25 80.9121 103.25ZM88.1375 105.725C88.1375 104.892 88.2958 104.167 88.6125 103.55C88.9292 102.933 89.3208 102.425 89.7875 102.025C90.2708 101.608 90.7458 101.283 91.2125 101.05C90.7792 100.7 90.4125 100.308 90.1125 99.875C89.8125 99.425 89.6625 98.8333 89.6625 98.1C89.6625 97.3667 89.8625 96.7167 90.2625 96.15C90.6625 95.5667 91.1958 95.1167 91.8625 94.8C92.5458 94.4667 93.3042 94.3 94.1375 94.3C94.9708 94.3 95.7292 94.4667 96.4125 94.8C97.1125 95.1167 97.6625 95.55 98.0625 96.1C98.4625 96.65 98.6625 97.275 98.6625 97.975C98.6625 98.775 98.5042 99.4 98.1875 99.85C97.8875 100.3 97.5125 100.7 97.0625 101.05C97.5292 101.3 97.9958 101.633 98.4625 102.05C98.9458 102.45 99.3458 102.958 99.6625 103.575C99.9958 104.192 100.163 104.908 100.163 105.725C100.163 106.692 99.8958 107.592 99.3625 108.425C98.8292 109.258 98.1042 109.933 97.1875 110.45C96.2875 110.95 95.2625 111.2 94.1125 111.2C92.9625 111.2 91.9375 110.95 91.0375 110.45C90.1375 109.933 89.4292 109.258 88.9125 108.425C88.3958 107.592 88.1375 106.692 88.1375 105.725ZM92.4875 98.45C92.4875 98.9 92.6625 99.2833 93.0125 99.6C93.3625 99.9167 93.7625 100.075 94.2125 100.075C94.6458 100.075 95.0292 99.9167 95.3625 99.6C95.7125 99.2833 95.8875 98.9 95.8875 98.45C95.8875 97.9667 95.7125 97.5583 95.3625 97.225C95.0292 96.8917 94.6458 96.725 94.2125 96.725C93.7625 96.725 93.3625 96.8917 93.0125 97.225C92.6625 97.5583 92.4875 97.9667 92.4875 98.45ZM91.1125 105.625C91.1125 106.192 91.2458 106.717 91.5125 107.2C91.7792 107.667 92.1375 108.042 92.5875 108.325C93.0542 108.608 93.5625 108.75 94.1125 108.75C94.6792 108.75 95.1958 108.608 95.6625 108.325C96.1458 108.042 96.5292 107.667 96.8125 107.2C97.1125 106.717 97.2625 106.192 97.2625 105.625C97.2625 105.058 97.1208 104.542 96.8375 104.075C96.5708 103.608 96.2125 103.233 95.7625 102.95C95.3125 102.667 94.8042 102.517 94.2375 102.5C93.6875 102.483 93.1708 102.617 92.6875 102.9C92.2208 103.167 91.8375 103.542 91.5375 104.025C91.2542 104.492 91.1125 105.025 91.1125 105.625ZM107.721 111.2C106.571 111.2 105.529 110.933 104.596 110.4C103.679 109.85 102.946 109.067 102.396 108.05C101.863 107.017 101.596 105.783 101.596 104.35C101.596 103.3 101.796 102.3 102.196 101.35C102.613 100.4 103.163 99.5 103.846 98.65C104.546 97.7833 105.338 96.9833 106.221 96.25C107.121 95.5167 108.054 94.8417 109.021 94.225L110.971 96.35C109.488 97.0167 108.279 97.8167 107.346 98.75C106.429 99.6833 105.763 100.608 105.346 101.525C105.763 101.125 106.238 100.825 106.771 100.625C107.321 100.408 107.963 100.3 108.696 100.3C109.529 100.3 110.321 100.533 111.071 101C111.821 101.45 112.429 102.075 112.896 102.875C113.379 103.658 113.621 104.567 113.621 105.6C113.621 106.767 113.338 107.767 112.771 108.6C112.204 109.433 111.471 110.075 110.571 110.525C109.688 110.975 108.738 111.2 107.721 111.2ZM107.596 108.6C108.446 108.6 109.154 108.333 109.721 107.8C110.304 107.267 110.596 106.533 110.596 105.6C110.596 104.717 110.304 104.025 109.721 103.525C109.138 103.008 108.429 102.75 107.596 102.75C106.763 102.75 106.054 103 105.471 103.5C104.888 103.983 104.596 104.567 104.596 105.25V105.75C104.596 106.25 104.729 106.717 104.996 107.15C105.263 107.583 105.621 107.933 106.071 108.2C106.521 108.467 107.029 108.6 107.596 108.6ZM120.616 111.2C119.682 111.2 118.782 111.033 117.916 110.7C117.066 110.35 116.391 109.925 115.891 109.425L117.416 107.125C117.732 107.508 118.166 107.817 118.716 108.05C119.282 108.283 119.832 108.4 120.366 108.4C121.149 108.4 121.807 108.15 122.341 107.65C122.874 107.15 123.141 106.475 123.141 105.625C123.141 104.708 122.882 103.958 122.366 103.375C121.849 102.792 121.116 102.5 120.166 102.5C119.616 102.5 119.091 102.575 118.591 102.725C118.107 102.875 117.582 103.117 117.016 103.45H116.991V94.5H125.016V97.3H119.491V100.2C119.941 100.1 120.399 100.05 120.866 100.05C121.999 100.05 122.957 100.308 123.741 100.825C124.524 101.325 125.116 101.992 125.516 102.825C125.932 103.642 126.141 104.542 126.141 105.525C126.141 106.592 125.899 107.558 125.416 108.425C124.932 109.275 124.274 109.95 123.441 110.45C122.607 110.95 121.666 111.2 120.616 111.2Z" fill="white"/>
<path d="M33 155V140.44H37.14C38.5933 140.44 39.8267 140.66 40.84 141.1C41.8533 141.527 42.6733 142.107 43.3 142.84C43.9267 143.56 44.38 144.367 44.66 145.26C44.9533 146.14 45.1 147.027 45.1 147.92C45.1 149.013 44.9067 150 44.52 150.88C44.1333 151.747 43.6 152.487 42.92 153.1C42.2533 153.713 41.48 154.187 40.6 154.52C39.7333 154.84 38.8133 155 37.84 155H33ZM35.34 152.76H37.42C38.4467 152.76 39.3533 152.567 40.14 152.18C40.94 151.793 41.5667 151.233 42.02 150.5C42.4733 149.753 42.7 148.84 42.7 147.76C42.7 146.853 42.5467 146.08 42.24 145.44C41.9467 144.787 41.5533 144.26 41.06 143.86C40.58 143.447 40.0533 143.147 39.48 142.96C38.9067 142.76 38.34 142.66 37.78 142.66H35.34V152.76ZM47.3148 147.74C47.3148 146.727 47.5082 145.773 47.8948 144.88C48.2815 143.973 48.8148 143.18 49.4948 142.5C50.1748 141.807 50.9615 141.267 51.8548 140.88C52.7615 140.48 53.7282 140.28 54.7548 140.28C55.7682 140.28 56.7215 140.48 57.6148 140.88C58.5215 141.267 59.3148 141.807 59.9948 142.5C60.6882 143.18 61.2282 143.973 61.6148 144.88C62.0148 145.773 62.2148 146.727 62.2148 147.74C62.2148 148.767 62.0148 149.727 61.6148 150.62C61.2282 151.513 60.6882 152.3 59.9948 152.98C59.3148 153.66 58.5215 154.193 57.6148 154.58C56.7215 154.967 55.7682 155.16 54.7548 155.16C53.7282 155.16 52.7615 154.973 51.8548 154.6C50.9615 154.213 50.1748 153.687 49.4948 153.02C48.8148 152.34 48.2815 151.553 47.8948 150.66C47.5082 149.753 47.3148 148.78 47.3148 147.74ZM49.7148 147.74C49.7148 148.7 49.9415 149.573 50.3948 150.36C50.8482 151.133 51.4548 151.753 52.2148 152.22C52.9882 152.687 53.8548 152.92 54.8148 152.92C55.7482 152.92 56.5882 152.687 57.3348 152.22C58.0948 151.753 58.6948 151.133 59.1348 150.36C59.5882 149.573 59.8148 148.7 59.8148 147.74C59.8148 146.767 59.5882 145.887 59.1348 145.1C58.6815 144.313 58.0748 143.687 57.3148 143.22C56.5548 142.753 55.7015 142.52 54.7548 142.52C53.8082 142.52 52.9548 142.753 52.1948 143.22C51.4348 143.687 50.8282 144.32 50.3748 145.12C49.9348 145.907 49.7148 146.78 49.7148 147.74ZM62.9509 140.52H65.6709L69.0709 150.24L71.4709 144.06L70.0909 140.52H72.3909L76.1309 149.96L79.2509 140.52H81.7509L76.0709 155.64L72.6309 146.98L68.7709 155.68L62.9509 140.52ZM97.2844 155.52L86.7844 145.34L86.8444 155H84.4844V139.94H84.6044L95.0644 150.26L95.0244 140.44H97.3444V155.52H97.2844ZM101.359 140.44H103.699V152.76H110.879V155H101.359V140.44ZM112.745 147.74C112.745 146.727 112.938 145.773 113.325 144.88C113.711 143.973 114.245 143.18 114.925 142.5C115.605 141.807 116.391 141.267 117.285 140.88C118.191 140.48 119.158 140.28 120.185 140.28C121.198 140.28 122.151 140.48 123.045 140.88C123.951 141.267 124.745 141.807 125.425 142.5C126.118 143.18 126.658 143.973 127.045 144.88C127.445 145.773 127.645 146.727 127.645 147.74C127.645 148.767 127.445 149.727 127.045 150.62C126.658 151.513 126.118 152.3 125.425 152.98C124.745 153.66 123.951 154.193 123.045 154.58C122.151 154.967 121.198 155.16 120.185 155.16C119.158 155.16 118.191 154.973 117.285 154.6C116.391 154.213 115.605 153.687 114.925 153.02C114.245 152.34 113.711 151.553 113.325 150.66C112.938 149.753 112.745 148.78 112.745 147.74ZM115.145 147.74C115.145 148.7 115.371 149.573 115.825 150.36C116.278 151.133 116.885 151.753 117.645 152.22C118.418 152.687 119.285 152.92 120.245 152.92C121.178 152.92 122.018 152.687 122.765 152.22C123.525 151.753 124.125 151.133 124.565 150.36C125.018 149.573 125.245 148.7 125.245 147.74C125.245 146.767 125.018 145.887 124.565 145.1C124.111 144.313 123.505 143.687 122.745 143.22C121.985 142.753 121.131 142.52 120.185 142.52C119.238 142.52 118.385 142.753 117.625 143.22C116.865 143.687 116.258 144.32 115.805 145.12C115.365 145.907 115.145 146.78 115.145 147.74ZM128.375 155L134.815 139.84H134.955L141.395 155H138.715L137.375 151.58H132.075L130.675 155H128.375ZM132.895 149.58H136.595L134.775 145L132.895 149.58ZM143.879 155V140.44H148.019C149.472 140.44 150.706 140.66 151.719 141.1C152.732 141.527 153.552 142.107 154.179 142.84C154.806 143.56 155.259 144.367 155.539 145.26C155.832 146.14 155.979 147.027 155.979 147.92C155.979 149.013 155.786 150 155.399 150.88C155.012 151.747 154.479 152.487 153.799 153.1C153.132 153.713 152.359 154.187 151.479 154.52C150.612 154.84 149.692 155 148.719 155H143.879ZM146.219 152.76H148.299C149.326 152.76 150.232 152.567 151.019 152.18C151.819 151.793 152.446 151.233 152.899 150.5C153.352 149.753 153.579 148.84 153.579 147.76C153.579 146.853 153.426 146.08 153.119 145.44C152.826 144.787 152.432 144.26 151.939 143.86C151.459 143.447 150.932 143.147 150.359 142.96C149.786 142.76 149.219 142.66 148.659 142.66H146.219V152.76Z" fill="white"/>
<g filter="url(#filter1_d_135_701)">
<rect x="210" y="9" width="170" height="176" rx="10" fill="#5851EA"/>
</g>
<g clip-path="url(#clip1_135_701)">
<path d="M285.917 52.1252H290.292V69.6252H285.917C285.53 69.6252 285.159 69.4715 284.885 69.198C284.612 68.9245 284.458 68.5536 284.458 68.1668V53.5835C284.458 53.1967 284.612 52.8258 284.885 52.5523C285.159 52.2788 285.53 52.1252 285.917 52.1252ZM293.636 50.2395L302.969 40.9062C303.093 40.7818 303.258 40.7064 303.433 40.6938C303.608 40.6812 303.782 40.7323 303.923 40.8377L305.167 41.771C305.512 42.0304 305.773 42.3862 305.917 42.7937C306.06 43.2011 306.08 43.642 305.973 44.0606L304.292 50.6668H313.625C314.399 50.6668 315.14 50.9741 315.687 51.5211C316.234 52.0681 316.542 52.8099 316.542 53.5835V56.6518C316.542 57.033 316.468 57.4105 316.323 57.7631L311.809 68.7225C311.699 68.9896 311.512 69.2181 311.272 69.3788C311.032 69.5395 310.749 69.6253 310.46 69.6252H294.667C294.28 69.6252 293.909 69.4715 293.635 69.198C293.362 68.9245 293.208 68.5536 293.208 68.1668V51.2706C293.208 50.8838 293.362 50.513 293.636 50.2395Z" fill="white"/>
</g>
<path d="M262.35 111C263.383 109.95 264.383 108.933 265.35 107.95C266.317 106.967 267.183 106.017 267.95 105.1C268.717 104.183 269.317 103.292 269.75 102.425C270.2 101.558 270.425 100.717 270.425 99.9C270.425 98.95 270.142 98.25 269.575 97.8C269.008 97.3333 268.333 97.1 267.55 97.1C266.917 97.1 266.392 97.225 265.975 97.475C265.575 97.725 265.275 98.0417 265.075 98.425C264.875 98.7917 264.775 99.1583 264.775 99.525C264.775 100.075 264.858 100.567 265.025 101C265.208 101.417 265.45 101.783 265.75 102.1L263.975 103.725C263.542 103.492 263.175 103.125 262.875 102.625C262.575 102.125 262.342 101.6 262.175 101.05C262.025 100.5 261.95 100.017 261.95 99.6C261.95 98.7 262.183 97.85 262.65 97.05C263.133 96.2333 263.825 95.575 264.725 95.075C265.625 94.5583 266.733 94.3 268.05 94.3C269.133 94.3 270.075 94.55 270.875 95.05C271.692 95.55 272.325 96.2083 272.775 97.025C273.225 97.825 273.45 98.7 273.45 99.65C273.45 100.667 273.217 101.658 272.75 102.625C272.283 103.575 271.683 104.508 270.95 105.425C270.217 106.342 269.458 107.267 268.675 108.2H273.85V111H262.35ZM280.764 105.7C279.948 105.7 279.156 105.475 278.389 105.025C277.639 104.575 277.023 103.95 276.539 103.15C276.073 102.35 275.839 101.442 275.839 100.425C275.839 99.175 276.123 98.1083 276.689 97.225C277.256 96.3417 277.989 95.6667 278.889 95.2C279.789 94.7167 280.748 94.475 281.764 94.475C282.898 94.475 283.923 94.7333 284.839 95.25C285.773 95.75 286.506 96.45 287.039 97.35C287.589 98.25 287.864 99.275 287.864 100.425C287.864 101.758 287.623 102.967 287.139 104.05C286.656 105.117 286.014 106.083 285.214 106.95C284.414 107.817 283.531 108.617 282.564 109.35C281.598 110.067 280.631 110.742 279.664 111.375L277.714 109.25C279.064 108.617 280.239 107.925 281.239 107.175C282.256 106.425 283.048 105.675 283.614 104.925C283.248 105.175 282.831 105.367 282.364 105.5C281.898 105.633 281.364 105.7 280.764 105.7ZM281.864 103.25C282.731 103.25 283.448 102.992 284.014 102.475C284.581 101.942 284.864 101.292 284.864 100.525V100.025C284.864 99.4917 284.723 99.0083 284.439 98.575C284.173 98.125 283.814 97.7667 283.364 97.5C282.931 97.2167 282.431 97.075 281.864 97.075C281.031 97.075 280.323 97.3583 279.739 97.925C279.156 98.475 278.864 99.2333 278.864 100.2C278.864 101.15 279.156 101.9 279.739 102.45C280.323 102.983 281.031 103.25 281.864 103.25ZM289.09 105.725C289.09 104.892 289.248 104.167 289.565 103.55C289.881 102.933 290.273 102.425 290.74 102.025C291.223 101.608 291.698 101.283 292.165 101.05C291.731 100.7 291.365 100.308 291.065 99.875C290.765 99.425 290.615 98.8333 290.615 98.1C290.615 97.3667 290.815 96.7167 291.215 96.15C291.615 95.5667 292.148 95.1167 292.815 94.8C293.498 94.4667 294.256 94.3 295.09 94.3C295.923 94.3 296.681 94.4667 297.365 94.8C298.065 95.1167 298.615 95.55 299.015 96.1C299.415 96.65 299.615 97.275 299.615 97.975C299.615 98.775 299.456 99.4 299.14 99.85C298.84 100.3 298.465 100.7 298.015 101.05C298.481 101.3 298.948 101.633 299.415 102.05C299.898 102.45 300.298 102.958 300.615 103.575C300.948 104.192 301.115 104.908 301.115 105.725C301.115 106.692 300.848 107.592 300.315 108.425C299.781 109.258 299.056 109.933 298.14 110.45C297.24 110.95 296.215 111.2 295.065 111.2C293.915 111.2 292.89 110.95 291.99 110.45C291.09 109.933 290.381 109.258 289.865 108.425C289.348 107.592 289.09 106.692 289.09 105.725ZM293.44 98.45C293.44 98.9 293.615 99.2833 293.965 99.6C294.315 99.9167 294.715 100.075 295.165 100.075C295.598 100.075 295.981 99.9167 296.315 99.6C296.665 99.2833 296.84 98.9 296.84 98.45C296.84 97.9667 296.665 97.5583 296.315 97.225C295.981 96.8917 295.598 96.725 295.165 96.725C294.715 96.725 294.315 96.8917 293.965 97.225C293.615 97.5583 293.44 97.9667 293.44 98.45ZM292.065 105.625C292.065 106.192 292.198 106.717 292.465 107.2C292.731 107.667 293.09 108.042 293.54 108.325C294.006 108.608 294.515 108.75 295.065 108.75C295.631 108.75 296.148 108.608 296.615 108.325C297.098 108.042 297.481 107.667 297.765 107.2C298.065 106.717 298.215 106.192 298.215 105.625C298.215 105.058 298.073 104.542 297.79 104.075C297.523 103.608 297.165 103.233 296.715 102.95C296.265 102.667 295.756 102.517 295.19 102.5C294.64 102.483 294.123 102.617 293.64 102.9C293.173 103.167 292.79 103.542 292.49 104.025C292.206 104.492 292.065 105.025 292.065 105.625ZM307.798 111.2C306.865 111.2 305.965 111.033 305.098 110.7C304.248 110.35 303.573 109.925 303.073 109.425L304.598 107.125C304.915 107.508 305.348 107.817 305.898 108.05C306.465 108.283 307.015 108.4 307.548 108.4C308.332 108.4 308.99 108.15 309.523 107.65C310.057 107.15 310.323 106.475 310.323 105.625C310.323 104.708 310.065 103.958 309.548 103.375C309.032 102.792 308.298 102.5 307.348 102.5C306.798 102.5 306.273 102.575 305.773 102.725C305.29 102.875 304.765 103.117 304.198 103.45H304.173V94.5H312.198V97.3H306.673V100.2C307.123 100.1 307.582 100.05 308.048 100.05C309.182 100.05 310.14 100.308 310.923 100.825C311.707 101.325 312.298 101.992 312.698 102.825C313.115 103.642 313.323 104.542 313.323 105.525C313.323 106.592 313.082 107.558 312.598 108.425C312.115 109.275 311.457 109.95 310.623 110.45C309.79 110.95 308.848 111.2 307.798 111.2ZM316.085 111C317.119 109.95 318.119 108.933 319.085 107.95C320.052 106.967 320.919 106.017 321.685 105.1C322.452 104.183 323.052 103.292 323.485 102.425C323.935 101.558 324.16 100.717 324.16 99.9C324.16 98.95 323.877 98.25 323.31 97.8C322.744 97.3333 322.069 97.1 321.285 97.1C320.652 97.1 320.127 97.225 319.71 97.475C319.31 97.725 319.01 98.0417 318.81 98.425C318.61 98.7917 318.51 99.1583 318.51 99.525C318.51 100.075 318.594 100.567 318.76 101C318.944 101.417 319.185 101.783 319.485 102.1L317.71 103.725C317.277 103.492 316.91 103.125 316.61 102.625C316.31 102.125 316.077 101.6 315.91 101.05C315.76 100.5 315.685 100.017 315.685 99.6C315.685 98.7 315.919 97.85 316.385 97.05C316.869 96.2333 317.56 95.575 318.46 95.075C319.36 94.5583 320.469 94.3 321.785 94.3C322.869 94.3 323.81 94.55 324.61 95.05C325.427 95.55 326.06 96.2083 326.51 97.025C326.96 97.825 327.185 98.7 327.185 99.65C327.185 100.667 326.952 101.658 326.485 102.625C326.019 103.575 325.419 104.508 324.685 105.425C323.952 106.342 323.194 107.267 322.41 108.2H327.585V111H316.085Z" fill="white"/>
<path d="M274 140.44H276.34V152.76H283.52V155H274V140.44ZM286.598 140.44H288.938V155H286.598V140.44ZM295.305 146.02L295.245 146.76L295.565 146.3L301.045 140.44H304.045L298.025 146.8L304.265 155H301.305L296.325 148.28L295.305 149.28V155H292.945V140.44H295.305V146.02ZM306.734 140.44H316.394V142.68H309.074V146.56H315.594V148.8H309.074V152.76H316.674V155H306.734V140.44Z" fill="white"/>
<g filter="url(#filter2_d_135_701)">
<rect x="410" y="9" width="170" height="176" rx="10" fill="#5851EA"/>
</g>
<g clip-path="url(#clip2_135_701)">
<path d="M492.5 65.629L482.214 71.3865L484.511 59.8248L475.856 51.8215L487.562 50.4332L492.5 39.729L497.438 50.4332L509.144 51.8215L500.489 59.8248L502.786 71.3865L492.5 65.629Z" fill="white"/>
</g>
<path d="M469.3 94.5H473.875V111H470.95V97.3H469.3V94.5ZM482.474 111.2C481.541 111.2 480.641 111.033 479.774 110.7C478.924 110.35 478.249 109.925 477.749 109.425L479.274 107.125C479.591 107.508 480.024 107.817 480.574 108.05C481.141 108.283 481.691 108.4 482.224 108.4C483.007 108.4 483.666 108.15 484.199 107.65C484.732 107.15 484.999 106.475 484.999 105.625C484.999 104.708 484.741 103.958 484.224 103.375C483.707 102.792 482.974 102.5 482.024 102.5C481.474 102.5 480.949 102.575 480.449 102.725C479.966 102.875 479.441 103.117 478.874 103.45H478.849V94.5H486.874V97.3H481.349V100.2C481.799 100.1 482.257 100.05 482.724 100.05C483.857 100.05 484.816 100.308 485.599 100.825C486.382 101.325 486.974 101.992 487.374 102.825C487.791 103.642 487.999 104.542 487.999 105.525C487.999 106.592 487.757 107.558 487.274 108.425C486.791 109.275 486.132 109.95 485.299 110.45C484.466 110.95 483.524 111.2 482.474 111.2ZM497.236 111.05C495.903 111.067 494.711 110.75 493.661 110.1C492.628 109.45 491.803 108.5 491.186 107.25C490.586 106 490.286 104.475 490.286 102.675C490.286 100.708 490.578 99.1083 491.161 97.875C491.744 96.6417 492.553 95.7417 493.586 95.175C494.636 94.5917 495.853 94.3083 497.236 94.325C498.553 94.3083 499.736 94.625 500.786 95.275C501.836 95.925 502.661 96.875 503.261 98.125C503.861 99.3583 504.161 100.875 504.161 102.675C504.161 104.525 503.853 106.075 503.236 107.325C502.636 108.575 501.811 109.517 500.761 110.15C499.728 110.767 498.553 111.067 497.236 111.05ZM497.211 108.275C498.128 108.275 498.869 108.033 499.436 107.55C500.019 107.067 500.444 106.4 500.711 105.55C500.994 104.683 501.136 103.7 501.136 102.6C501.136 101.533 500.994 100.592 500.711 99.775C500.444 98.9417 500.019 98.2917 499.436 97.825C498.853 97.3583 498.111 97.125 497.211 97.125C496.294 97.125 495.553 97.3667 494.986 97.85C494.419 98.3167 493.994 98.9667 493.711 99.8C493.444 100.633 493.311 101.592 493.311 102.675C493.311 103.742 493.444 104.7 493.711 105.55C493.994 106.4 494.419 107.067 494.986 107.55C495.553 108.033 496.294 108.275 497.211 108.275ZM512.861 111.05C511.528 111.067 510.336 110.75 509.286 110.1C508.253 109.45 507.428 108.5 506.811 107.25C506.211 106 505.911 104.475 505.911 102.675C505.911 100.708 506.203 99.1083 506.786 97.875C507.369 96.6417 508.178 95.7417 509.211 95.175C510.261 94.5917 511.478 94.3083 512.861 94.325C514.178 94.3083 515.361 94.625 516.411 95.275C517.461 95.925 518.286 96.875 518.886 98.125C519.486 99.3583 519.786 100.875 519.786 102.675C519.786 104.525 519.478 106.075 518.861 107.325C518.261 108.575 517.436 109.517 516.386 110.15C515.353 110.767 514.178 111.067 512.861 111.05ZM512.836 108.275C513.753 108.275 514.494 108.033 515.061 107.55C515.644 107.067 516.069 106.4 516.336 105.55C516.619 104.683 516.761 103.7 516.761 102.6C516.761 101.533 516.619 100.592 516.336 99.775C516.069 98.9417 515.644 98.2917 515.061 97.825C514.478 97.3583 513.736 97.125 512.836 97.125C511.919 97.125 511.178 97.3667 510.611 97.85C510.044 98.3167 509.619 98.9667 509.336 99.8C509.069 100.633 508.936 101.592 508.936 102.675C508.936 103.742 509.069 104.7 509.336 105.55C509.619 106.4 510.044 107.067 510.611 107.55C511.178 108.033 511.919 108.275 512.836 108.275Z" fill="white"/>
<path d="M424.88 155.16C424.133 155.16 423.413 155.027 422.72 154.76C422.04 154.48 421.5 154.14 421.1 153.74L422.32 151.9C422.573 152.207 422.92 152.453 423.36 152.64C423.813 152.827 424.253 152.92 424.68 152.92C425.307 152.92 425.833 152.72 426.26 152.32C426.687 151.92 426.9 151.38 426.9 150.7C426.9 149.967 426.693 149.367 426.28 148.9C425.867 148.433 425.28 148.2 424.52 148.2C424.08 148.2 423.66 148.26 423.26 148.38C422.873 148.5 422.453 148.693 422 148.96H421.98V141.8H428.4V144.04H423.98V146.36C424.34 146.28 424.707 146.24 425.08 146.24C425.987 146.24 426.753 146.447 427.38 146.86C428.007 147.26 428.48 147.793 428.8 148.46C429.133 149.113 429.3 149.833 429.3 150.62C429.3 151.473 429.107 152.247 428.72 152.94C428.333 153.62 427.807 154.16 427.14 154.56C426.473 154.96 425.72 155.16 424.88 155.16ZM446.476 143.4C445.956 143.133 445.403 142.907 444.816 142.72C444.243 142.52 443.683 142.42 443.136 142.42C442.416 142.42 441.843 142.58 441.416 142.9C441.003 143.207 440.796 143.647 440.796 144.22C440.796 144.62 440.943 144.973 441.236 145.28C441.529 145.573 441.903 145.833 442.356 146.06C442.809 146.287 443.289 146.493 443.796 146.68C444.383 146.893 444.949 147.16 445.496 147.48C446.056 147.8 446.516 148.24 446.876 148.8C447.236 149.347 447.416 150.08 447.416 151C447.416 151.76 447.223 152.46 446.836 153.1C446.449 153.727 445.896 154.227 445.176 154.6C444.456 154.973 443.583 155.16 442.556 155.16C441.649 155.16 440.769 155.02 439.916 154.74C439.076 154.447 438.329 154.073 437.676 153.62L438.716 151.8C439.196 152.16 439.769 152.467 440.436 152.72C441.116 152.973 441.749 153.1 442.336 153.1C442.749 153.1 443.156 153.033 443.556 152.9C443.969 152.767 444.309 152.547 444.576 152.24C444.856 151.933 444.996 151.527 444.996 151.02C444.996 150.607 444.876 150.253 444.636 149.96C444.396 149.667 444.083 149.413 443.696 149.2C443.323 148.973 442.909 148.773 442.456 148.6C442.003 148.427 441.536 148.233 441.056 148.02C440.589 147.807 440.156 147.547 439.756 147.24C439.356 146.92 439.029 146.533 438.776 146.08C438.523 145.627 438.396 145.067 438.396 144.4C438.396 143.6 438.583 142.907 438.956 142.32C439.329 141.72 439.843 141.253 440.496 140.92C441.163 140.587 441.929 140.4 442.796 140.36C443.823 140.36 444.696 140.487 445.416 140.74C446.149 140.98 446.796 141.273 447.356 141.62L446.476 143.4ZM449.378 140.44H459.118V142.68H455.358V155H453.038V142.68H449.378V140.44ZM459.406 155L465.846 139.84H465.986L472.426 155H469.746L468.406 151.58H463.106L461.706 155H459.406ZM463.926 149.58H467.626L465.806 145L463.926 149.58ZM479.01 140.44C480.09 140.44 481.03 140.627 481.83 141C482.643 141.36 483.27 141.893 483.71 142.6C484.163 143.293 484.39 144.133 484.39 145.12C484.39 145.947 484.21 146.753 483.85 147.54C483.49 148.327 482.883 148.94 482.03 149.38L485.57 155H482.87L479.59 149.94C479.51 149.94 479.43 149.94 479.35 149.94H477.25V155H474.91V140.44H479.01ZM479.33 147.7C480.023 147.7 480.563 147.567 480.95 147.3C481.337 147.02 481.603 146.687 481.75 146.3C481.91 145.9 481.99 145.533 481.99 145.2C481.99 144.88 481.917 144.527 481.77 144.14C481.623 143.74 481.363 143.4 480.99 143.12C480.617 142.827 480.09 142.68 479.41 142.68H477.25V147.7H479.33ZM498.815 140.44C499.895 140.44 500.835 140.627 501.635 141C502.448 141.36 503.075 141.893 503.515 142.6C503.968 143.293 504.195 144.133 504.195 145.12C504.195 145.947 504.015 146.753 503.655 147.54C503.295 148.327 502.688 148.94 501.835 149.38L505.375 155H502.675L499.395 149.94C499.315 149.94 499.235 149.94 499.155 149.94H497.055V155H494.715V140.44H498.815ZM499.135 147.7C499.828 147.7 500.368 147.567 500.755 147.3C501.142 147.02 501.408 146.687 501.555 146.3C501.715 145.9 501.795 145.533 501.795 145.2C501.795 144.88 501.722 144.527 501.575 144.14C501.428 143.74 501.168 143.4 500.795 143.12C500.422 142.827 499.895 142.68 499.215 142.68H497.055V147.7H499.135ZM506.593 155L513.033 139.84H513.173L519.613 155H516.933L515.593 151.58H510.293L508.893 155H506.593ZM511.113 149.58H514.813L512.993 145L511.113 149.58ZM519.905 140.44H529.645V142.68H525.885V155H523.565V142.68H519.905V140.44ZM532.605 140.44H534.945V155H532.605V140.44ZM551.753 155.52L541.253 145.34L541.313 155H538.953V139.94H539.073L549.533 150.26L549.493 140.44H551.813V155.52H551.753ZM567.408 153.66C567.155 153.9 566.755 154.133 566.208 154.36C565.661 154.587 565.061 154.78 564.408 154.94C563.768 155.087 563.161 155.16 562.588 155.16C561.028 155.16 559.675 154.853 558.528 154.24C557.381 153.613 556.495 152.767 555.868 151.7C555.241 150.633 554.928 149.42 554.928 148.06C554.928 146.793 555.128 145.673 555.528 144.7C555.928 143.727 556.475 142.913 557.168 142.26C557.861 141.607 558.655 141.113 559.548 140.78C560.455 140.447 561.408 140.28 562.408 140.28C563.288 140.28 564.101 140.38 564.848 140.58C565.595 140.78 566.241 141.033 566.788 141.34L566.028 143.5C565.761 143.353 565.428 143.213 565.028 143.08C564.641 142.933 564.241 142.82 563.828 142.74C563.415 142.66 563.041 142.62 562.708 142.62C561.055 142.62 559.741 143.08 558.768 144C557.808 144.92 557.328 146.207 557.328 147.86C557.328 148.86 557.555 149.733 558.008 150.48C558.461 151.227 559.081 151.807 559.868 152.22C560.668 152.633 561.595 152.84 562.648 152.84C563.101 152.84 563.541 152.8 563.968 152.72C564.395 152.64 564.761 152.513 565.068 152.34V149.92H562.328V147.68H567.408V153.66Z" fill="white"/>
<defs>
<filter id="filter0_d_135_701" x="0" y="0" width="190" height="196" filterUnits="userSpaceOnUse" color-interpolation-filters="sRGB">
<feFlood flood-opacity="0" result="BackgroundImageFix"/>
<feColorMatrix in="SourceAlpha" type="matrix" values="0 0 0 0 0 0 0 0 0 0 0 0 0 0 0 0 0 0 127 0" result="hardAlpha"/>
<feOffset dy="1"/>
<feGaussianBlur stdDeviation="5"/>
<feColorMatrix type="matrix" values="0 0 0 0 0 0 0 0 0 0 0 0 0 0 0 0 0 0 0.1 0"/>
<feBlend mode="normal" in2="BackgroundImageFix" result="effect1_dropShadow_135_701"/>
<feBlend mode="normal" in="SourceGraphic" in2="effect1_dropShadow_135_701" result="shape"/>
</filter>
<filter id="filter1_d_135_701" x="200" y="0" width="190" height="196" filterUnits="userSpaceOnUse" color-interpolation-filters="sRGB">
<feFlood flood-opacity="0" result="BackgroundImageFix"/>
<feColorMatrix in="SourceAlpha" type="matrix" values="0 0 0 0 0 0 0 0 0 0 0 0 0 0 0 0 0 0 127 0" result="hardAlpha"/>
<feOffset dy="1"/>
<feGaussianBlur stdDeviation="5"/>
<feColorMatrix type="matrix" values="0 0 0 0 0 0 0 0 0 0 0 0 0 0 0 0 0 0 0.1 0"/>
<feBlend mode="normal" in2="BackgroundImageFix" result="effect1_dropShadow_135_701"/>
<feBlend mode="normal" in="SourceGraphic" in2="effect1_dropShadow_135_701" result="shape"/>
</filter>
<filter id="filter2_d_135_701" x="400" y="0" width="190" height="196" filterUnits="userSpaceOnUse" color-interpolation-filters="sRGB">
<feFlood flood-opacity="0" result="BackgroundImageFix"/>
<feColorMatrix in="SourceAlpha" type="matrix" values="0 0 0 0 0 0 0 0 0 0 0 0 0 0 0 0 0 0 127 0" result="hardAlpha"/>
<feOffset dy="1"/>
<feGaussianBlur stdDeviation="5"/>
<feColorMatrix type="matrix" values="0 0 0 0 0 0 0 0 0 0 0 0 0 0 0 0 0 0 0.1 0"/>
<feBlend mode="normal" in2="BackgroundImageFix" result="effect1_dropShadow_135_701"/>
<feBlend mode="normal" in="SourceGraphic" in2="effect1_dropShadow_135_701" result="shape"/>
</filter>
<clipPath id="clip0_135_701">
<rect width="35" height="35" fill="white" transform="translate(77 39)"/>
</clipPath>
<clipPath id="clip1_135_701">
<rect width="35" height="35" fill="white" transform="translate(283 39)"/>
</clipPath>
<clipPath id="clip2_135_701">
<rect width="35" height="35" fill="white" transform="translate(475 39)"/>
</clipPath>
</defs>
</svg>
