<svg width="56" height="38" viewBox="0 0 56 38" fill="none" xmlns="http://www.w3.org/2000/svg">
<path d="M55.7737 19.8611C49.4783 31.0098 39.095 37.6667 28 37.6667C16.905 37.6667 6.52166 31.0098 0.22633 19.8611C-0.0746702 19.3268 -0.0746702 18.6758 0.22633 18.1414C6.52166 6.99042 16.905 0.333424 28 0.333424C39.095 0.333424 49.4783 6.99042 55.7737 18.1391C56.0747 18.6734 56.0747 19.3268 55.7737 19.8611ZM28 9.66676C22.8527 9.66676 18.6667 13.8528 18.6667 19.0001C18.6667 24.1474 22.8527 28.3334 28 28.3334C33.1473 28.3334 37.3333 24.1474 37.3333 19.0001C37.3333 13.8528 33.1473 9.66676 28 9.66676Z" fill="white"/>
</svg>
