<svg width="50" height="33" viewBox="0 0 50 33" fill="none" xmlns="http://www.w3.org/2000/svg">
<path d="M0 28.043C0 30.4661 1.97144 32.4375 4.39453 32.4375H45.6055C48.0286 32.4375 50 30.4661 50 28.043V0.210938H0V28.043ZM14.7461 13.3945C14.7461 11.3689 16.1308 9.67596 17.9985 9.16937C17.7944 8.66316 17.6758 8.11346 17.6758 7.53516C17.6758 5.11206 19.6472 3.14062 22.0703 3.14062C23.1998 3.14062 24.2207 3.58084 25 4.28351C25.7793 3.58084 26.8002 3.14062 27.9297 3.14062C30.3528 3.14062 32.3242 5.11206 32.3242 7.53516C32.3242 8.11346 32.2056 8.66316 32.0015 9.16937C33.8692 9.67596 35.2539 11.3689 35.2539 13.3945V16.3242C35.2539 17.1337 34.5985 17.7891 33.7891 17.7891H32.3242V25.1133C32.3242 25.9228 31.6689 26.5781 30.8594 26.5781H19.1406C18.3311 26.5781 17.6758 25.9228 17.6758 25.1133V17.7891H16.2109C15.4015 17.7891 14.7461 17.1337 14.7461 16.3242V13.3945Z" fill="white"/>
</svg>
