<svg width="42" height="22" viewBox="0 0 42 22" fill="none" xmlns="http://www.w3.org/2000/svg">
<path d="M41.1537 15.1066C40.5994 11.6604 39.4583 7.22119 37.1699 5.64393C35.6094 4.56782 30.1617 1.65714 27.8354 0.414344L27.7865 0.388262C27.5203 0.246023 27.1954 0.274551 26.9581 0.460808C25.7377 1.41872 24.4017 2.06403 22.9873 2.3788C22.7374 2.43436 22.5321 2.6122 22.4412 2.85157L20.9999 6.6502L19.5586 2.85157C19.4678 2.61206 19.2625 2.43436 19.0125 2.3788C17.5981 2.06403 16.2619 1.41872 15.0414 0.460808C14.8042 0.274416 14.4792 0.245887 14.213 0.388262C11.9128 1.6172 6.39449 4.58902 4.83651 5.63931C2.20107 7.41479 1.05011 13.8373 0.846197 15.1067C0.825955 15.2327 0.837638 15.3615 0.880161 15.4816C0.974444 15.7478 3.39184 22.0003 20.9998 22.0003C38.6075 22.0003 41.0251 15.7478 41.1196 15.4817C41.1622 15.3613 41.1739 15.2324 41.1537 15.1066ZM32.9551 11.1492H25.9812V9.68043H32.9551V11.1492Z" fill="white"/>
</svg>
